<svg width="224" height="128" viewBox="0 0 112 64" fill="none" xmlns="http://www.w3.org/2000/svg">
<path fill-rule="evenodd" clip-rule="evenodd" d="M90.3423 35.5936C88.7039 35.5936 87.378 34.6307 87.0823 33.1735C85.9623 34.8016 84.273 36.1631 82.3181 36.1631C80.1566 36.1631 79.0856 34.7642 78.8343 33.6127C77.6301 35.3841 75.814 36.7844 73.6842 36.7844C70.9338 36.7844 69.9306 34.7504 69.8434 33.5017C69.0319 33.6181 68.3641 33.6257 67.8146 33.6257C66.3744 33.6257 65.1522 33.0996 65.553 31.0381C65.7073 30.2445 65.5277 29.6152 64.7022 29.6152C63.0632 29.6152 61.7881 32.278 61.428 34.1308L60.7939 37.389L58.4219 37.55L59.6733 31.1362C59.9985 29.4404 59.7685 29.0157 58.5169 29.0157C57.7406 29.0157 56.1883 29.5062 54.7028 30.1187L53.2266 37.7133C52.4585 41.6646 50.576 43.4427 48.127 43.4427C46.8322 43.4427 46.0197 43.049 45.4251 42.7159L45.8132 40.7116L45.8417 40.7482C46.3102 41.3486 46.9572 42.1779 48.0209 42.1779C49.1878 42.1779 50.0608 41.3363 50.709 38.0014L52.0318 31.1963C49.5828 32.1234 46.4612 33.0217 41.718 33.2062L41.9423 32.0522C46.7876 31.832 49.8669 30.8335 52.2907 29.8715L52.986 26.2854C53.7241 22.4895 55.4958 20.5557 58.1552 20.5557C59.0568 20.5557 59.9127 20.7636 60.8007 21.2825L60.4127 23.2868C59.691 22.3539 59.0977 21.8205 58.2049 21.8205C57.0784 21.8205 56.1747 22.5468 55.5043 25.994C55.5043 25.994 54.9657 28.7881 54.9632 28.785C56.4587 28.1978 57.8459 27.8161 59.0629 27.8161C61.7233 27.8161 62.0943 29.1726 61.6647 31.3832C62.425 29.5745 63.791 27.746 65.6408 27.746C67.2569 27.746 68.0894 28.9497 67.7887 30.4958C67.5798 31.5712 67.4171 32.588 68.7506 32.588C69.071 32.588 69.4442 32.5548 69.8362 32.4954C69.9989 30.5489 71.648 27.746 74.4707 27.746C76.242 27.746 76.8894 28.7229 76.8894 29.7635C76.8894 32.0327 73.961 32.837 72.0441 33.201C72.0441 34.0259 72.3719 35.309 74.3481 35.309C76.0595 35.309 77.8924 33.8258 78.7736 31.8472C79.1137 29.9266 80.6543 27.746 83.0475 27.746C84.5788 27.746 85.312 28.5429 85.312 29.6257C85.312 31.6545 82.825 32.4742 80.8164 32.8372C80.8164 33.4287 81.0179 34.7584 82.9342 34.7584C84.5231 34.7584 86.2798 33.2609 87.071 31.3762C87.4494 29.6012 88.9445 27.745 91.0235 27.745C92.5552 27.745 93.1325 28.5867 93.1325 29.4301C93.1325 31.2853 91.2437 32.0304 88.9389 32.4907C88.9389 33.1831 89.2371 34.2877 90.9178 34.2877C92.6064 34.2877 94.4258 32.6075 95.0374 30.4395L95.8693 30.6157C95.225 32.858 93.1693 35.5936 90.3423 35.5936ZM75.1736 29.8252C75.1736 29.113 74.7617 28.859 74.3724 28.859C73.2795 28.859 72.0943 31.0104 72.0943 32.1409C73.4389 31.8425 75.1736 31.1582 75.1736 29.8252ZM82.9564 28.8146C83.342 28.8146 83.6811 29.0723 83.6811 29.682C83.6811 30.9119 82.1001 31.5391 80.8649 31.8157C80.8649 30.8481 81.9374 28.8146 82.9564 28.8146ZM91.6166 29.5369C91.6166 28.989 91.2976 28.7366 90.9385 28.7366C89.9543 28.7366 88.9844 30.6414 88.9844 31.5426C90.1381 31.2843 91.6166 30.7153 91.6166 29.5369Z" fill="#2864F0"/>
<path fill-rule="evenodd" clip-rule="evenodd" d="M34.648 30.7359C32.1452 30.7359 29.7018 30.4828 27.3413 30.0009C32.6937 27.4199 36.7083 22.5042 38.0635 16.5749L23.0984 28.0924C22.2616 28.7363 22.0415 28.5161 21.2469 28.5161C19.9825 28.5161 18.7872 29.0208 17.9299 29.8508C17.5994 30.1708 17.5568 30.2598 17.0458 30.384L16 30.638L17.9907 31.0748C19.5784 31.4234 19.9395 31.6824 20.8136 32.817L32.0648 47.4232C32.3537 43.1236 31.0585 38.8492 28.1199 35.4288C29.3573 35.4206 30.4987 35.2036 31.6006 34.8233C32.515 34.5079 32.7445 34.4396 33.8976 34.4396H39.861C39.9412 34.04 39.7908 33.9213 39.2027 33.8393L34.5898 33.1974C34.7942 33.0516 35.075 32.8001 35.2868 32.6259C35.7438 32.2498 35.8702 32.1358 36.5503 31.9746C37.8402 31.6688 38.8526 31.3535 40.1512 30.8988C40.6534 30.7228 40.5744 30.5381 40.6787 30.228C38.3887 30.5889 36.9022 30.7359 34.648 30.7359ZM28.015 34.5227C25.3999 34.5227 23.0219 33.5078 21.2533 31.8504C22.8407 31.364 24.8806 31.3013 27.5585 31.5843C30.0187 31.8446 32.0195 32.2475 34.32 32.2526C32.6083 33.6704 30.4111 34.5227 28.015 34.5227ZM20.7807 31.0234C20.3708 31.0234 20.0387 30.6913 20.0387 30.2816C20.0387 29.872 20.3708 29.5398 20.7807 29.5398C21.1901 29.5398 21.5223 29.872 21.5223 30.2816C21.5223 30.6913 21.1901 31.0234 20.7807 31.0234Z" fill="#2864F0"/>
<path fill-rule="evenodd" clip-rule="evenodd" d="M20.7807 31.0234C20.3708 31.0234 20.0387 30.6913 20.0387 30.2816C20.0387 29.872 20.3708 29.5398 20.7807 29.5398C21.1901 29.5398 21.5223 29.872 21.5223 30.2816C21.5223 30.6913 21.1901 31.0234 20.7807 31.0234Z" fill="white"/>
<path fill-rule="evenodd" clip-rule="evenodd" d="M28.015 34.5227C25.3999 34.5227 23.0219 33.5078 21.2533 31.8504C22.8407 31.364 24.8806 31.3013 27.5585 31.5843C30.0187 31.8446 32.0195 32.2475 34.32 32.2526C32.6083 33.6704 30.4111 34.5227 28.015 34.5227Z" fill="white"/>
</svg>
